ffmpeg started on 2016-12-06 at 15:16:15
Report written to "Output/x264/results/ffmpeg/sintelmedium1500k.log"
Command line:
Tools/ffmpeg/ffmpeg -benchmark -y -i Input/y4m/sintel.y4m -c:v libx264 -preset medium -b:v 1500k -an Output/x264/encoded/sintelmedium1500k.mkv
ffmpeg version N-82227-gdb23fde Copyright (c) 2000-2016 the FFmpeg developers
  built with gcc 5.4.0 (Ubuntu 5.4.0-6ubuntu1~16.04.2) 20160609
  configuration: --prefix=/home/jaroslav/ffmpeg_build --pkg-config-flags=--static --extra-cflags=-I/home/jaroslav/ffmpeg_build/include --extra-ldflags=-L/home/jaroslav/ffmpeg_build/lib --bindir=/home/jaroslav/bin --enable-gpl --enable-libass --enable-libfdk-aac --enable-libfreetype --enable-libmp3lame --enable-libopus --enable-libtheora --enable-libvorbis --enable-libvpx --enable-libx264 --enable-libx265 --enable-nvenc --enable-libmfx --enable-libxvid --enable-libgsm --enable-libopencore-amrnb --enable-version3 --enable-nonfree
  libavutil      55. 35.100 / 55. 35.100
  libavcodec     57. 66.101 / 57. 66.101
  libavformat    57. 57.100 / 57. 57.100
  libavdevice    57.  2.100 / 57.  2.100
  libavfilter     6. 66.100 /  6. 66.100
  libswscale      4.  3.100 /  4.  3.100
  libswresample   2.  4.100 /  2.  4.100
  libpostproc    54.  2.100 / 54.  2.100
Input #0, yuv4mpegpipe, from 'Input/y4m/sintel.y4m':
  Duration: 00:00:20.83, start: 0.000000, bitrate: 2057307 kb/s
    Stream #0:0: Video: rawvideo (I420 / 0x30323449), yuv420p(progressive), 4096x1744, SAR 1:1 DAR 256:109, 24 fps, 24 tbr, 24 tbn, 24 tbc
[libx264 @ 0x37931c0] using SAR=1/1
[libx264 @ 0x37931c0] using cpu capabilities: MMX2 SSE2Fast SSSE3 SSE4.2 AVX FMA3 AVX2 LZCNT BMI2
[libx264 @ 0x37931c0] profile High, level 5.1
[libx264 @ 0x37931c0] 264 - core 148 - H.264/MPEG-4 AVC codec - Copyleft 2003-2016 - http://www.videolan.org/x264.html - options: cabac=1 ref=3 deblock=1:0:0 analyse=0x3:0x113 me=hex subme=7 psy=1 psy_rd=1.00:0.00 mixed_ref=1 me_range=16 chroma_me=1 trellis=1 8x8dct=1 cqm=0 deadzone=21,11 fast_pskip=1 chroma_qp_offset=-2 threads=6 lookahead_threads=1 sliced_threads=0 nr=0 decimate=1 interlaced=0 bluray_compat=0 constrained_intra=0 bframes=3 b_pyramid=2 b_adapt=1 b_bias=0 direct=1 weightb=1 open_gop=0 weightp=2 keyint=250 keyint_min=24 scenecut=40 intra_refresh=0 rc_lookahead=40 rc=abr mbtree=1 bitrate=1500 ratetol=1.0 qcomp=0.60 qpmin=0 qpmax=69 qpstep=4 ip_ratio=1.40 aq=1:1.00
Output #0, matroska, to 'Output/x264/encoded/sintelmedium1500k.mkv':
  Metadata:
    encoder         : Lavf57.57.100
    Stream #0:0: Video: h264 (libx264) (H264 / 0x34363248), yuv420p, 4096x1744 [SAR 1:1 DAR 256:109], q=-1--1, 1500 kb/s, 24 fps, 1k tbn, 24 tbc
    Metadata:
      encoder         : Lavc57.66.101 libx264
    Side data:
      cpb: bitrate max/min/avg: 0/0/1500000 buffer size: 0 vbv_delay: -1
Stream mapping:
  Stream #0:0 -> #0:0 (rawvideo (native) -> h264 (libx264))
Press [q] to stop, [?] for help
frame=    8 fps=0.0 q=0.0 size=       0kB time=00:00:00.00 bitrate=N/A speed=   0x    frame=   17 fps= 13 q=0.0 size=       0kB time=00:00:00.00 bitrate=N/A speed=   0x    frame=   21 fps= 11 q=0.0 size=       0kB time=00:00:00.00 bitrate=N/A speed=   0x    frame=   24 fps=9.9 q=0.0 size=       0kB time=00:00:00.00 bitrate=N/A speed=   0x    frame=   30 fps= 10 q=0.0 size=       0kB time=00:00:00.00 bitrate=N/A speed=   0x    frame=   34 fps=9.8 q=0.0 size=       0kB time=00:00:00.00 bitrate=N/A speed=   0x    frame=   39 fps=5.5 q=0.0 size=       0kB time=00:00:00.00 bitrate=N/A speed=   0x    frame=   40 fps=3.9 q=0.0 size=       0kB time=00:00:00.00 bitrate=N/A speed=   0x    frame=   41 fps=3.7 q=0.0 size=       0kB time=00:00:00.00 bitrate=N/A speed=   0x    frame=   44 fps=3.7 q=0.0 size=       0kB time=00:00:00.00 bitrate=N/A speed=   0x    frame=   47 fps=3.4 q=0.0 size=       0kB time=00:00:00.00 bitrate=N/A speed=   0x    frame=   54 fps=3.7 q=50.0 size=       1kB time=00:00:00.04 bitrate= 136.6kbits/s speed=0.00293x    frame=   58 fps=3.8 q=55.0 size=       1kB time=00:00:00.20 bitrate=  28.1kbits/s speed=0.0137x    frame=   63 fps=3.9 q=56.0 size=       1kB time=00:00:00.41 bitrate=  14.0kbits/s speed=0.0259x    frame=   67 fps=4.0 q=58.0 size=       1kB time=00:00:00.58 bitrate=  10.1kbits/s speed=0.0347x    frame=   70 fps=4.0 q=58.0 size=       1kB time=00:00:00.70 bitrate=   8.3kbits/s speed=0.0409x    frame=   75 fps=4.1 q=59.0 size=       1kB time=00:00:00.91 bitrate=   6.4kbits/s speed=0.0507x    frame=   83 fps=4.4 q=59.0 size=       1kB time=00:00:01.25 bitrate=   4.7kbits/s speed=0.0661x    frame=   89 fps=4.5 q=59.0 size=       1kB time=00:00:01.50 bitrate=   3.9kbits/s speed=0.0759x    frame=   95 fps=4.6 q=59.0 size=       1kB time=00:00:01.75 bitrate=   3.4kbits/s speed=0.0849x    frame=   97 fps=4.5 q=59.0 size=       1kB time=00:00:01.83 bitrate=   3.2kbits/s speed=0.0859x    frame=  100 fps=4.4 q=59.0 size=       1kB time=00:00:01.95 bitrate=   3.0kbits/s speed=0.0872x    frame=  102 fps=4.4 q=59.0 size=       1kB time=00:00:02.04 bitrate=   2.9kbits/s speed=0.0889x    frame=  104 fps=4.4 q=59.0 size=       1kB time=00:00:02.12 bitrate=   2.8kbits/s speed=0.0896x    frame=  108 fps=4.4 q=59.0 size=       1kB time=00:00:02.29 bitrate=   2.6kbits/s speed=0.0935x    frame=  115 fps=4.6 q=59.0 size=       1kB time=00:00:02.58 bitrate=   2.3kbits/s speed=0.103x    frame=  121 fps=4.7 q=60.0 size=       1kB time=00:00:02.83 bitrate=   2.1kbits/s speed=0.11x    frame=  123 fps=4.7 q=60.0 size=       1kB time=00:00:02.91 bitrate=   2.0kbits/s speed=0.111x    frame=  129 fps=4.8 q=60.0 size=       1kB time=00:00:03.16 bitrate=   1.9kbits/s speed=0.117x    frame=  132 fps=4.8 q=60.0 size=       1kB time=00:00:03.29 bitrate=   1.8kbits/s speed=0.119x    frame=  137 fps=4.8 q=60.0 size=       1kB time=00:00:03.50 bitrate=   1.7kbits/s speed=0.123x    frame=  140 fps=4.8 q=60.0 size=       1kB time=00:00:03.62 bitrate=   1.6kbits/s speed=0.124x    frame=  147 fps=4.9 q=60.0 size=     922kB time=00:00:03.91 bitrate=1927.7kbits/s speed=0.132x    frame=  149 fps=4.9 q=60.0 size=     922kB time=00:00:04.00 bitrate=1887.7kbits/s speed=0.131x    frame=  155 fps=4.9 q=60.0 size=     922kB time=00:00:04.25 bitrate=1776.7kbits/s speed=0.134x    frame=  161 fps=5.0 q=57.0 size=     922kB time=00:00:04.50 bitrate=1678.0kbits/s speed=0.14x    frame=  165 fps=5.0 q=59.0 size=     922kB time=00:00:04.66 bitrate=1618.0kbits/s speed=0.142x    frame=  169 fps=5.0 q=59.0 size=     922kB time=00:00:04.83 bitrate=1562.4kbits/s speed=0.144x    frame=  172 fps=5.0 q=59.0 size=     922kB time=00:00:04.95 bitrate=1523.0kbits/s speed=0.144x    frame=  175 fps=5.0 q=59.0 size=     922kB time=00:00:05.08 bitrate=1485.6kbits/s speed=0.146x    frame=  177 fps=5.0 q=59.0 size=     922kB time=00:00:05.16 bitrate=1461.4kbits/s speed=0.145x    frame=  183 fps=5.1 q=60.0 size=     922kB time=00:00:05.41 bitrate=1394.0kbits/s speed=0.15x    frame=  185 fps=5.0 q=60.0 size=     922kB time=00:00:05.50 bitrate=1373.0kbits/s speed=0.149x    frame=  188 fps=5.0 q=60.0 size=     922kB time=00:00:05.62 bitrate=1342.5kbits/s speed=0.15x    frame=  193 fps=5.1 q=60.0 size=     922kB time=00:00:05.83 bitrate=1294.6kbits/s speed=0.153x    frame=  194 fps=5.0 q=61.0 size=     922kB time=00:00:05.87 bitrate=1285.3kbits/s speed=0.151x    frame=  200 fps=5.1 q=61.0 size=     922kB time=00:00:06.12 bitrate=1232.9kbits/s speed=0.156x    frame=  204 fps=5.1 q=61.0 size=     922kB time=00:00:06.29 bitrate=1200.2kbits/s speed=0.158x    frame=  207 fps=5.1 q=61.0 size=    1406kB time=00:00:06.41 bitrate=1794.8kbits/s speed=0.159x    frame=  212 fps=5.1 q=61.0 size=    1406kB time=00:00:06.62 bitrate=1738.5kbits/s speed=0.161x    frame=  216 fps=5.2 q=61.0 size=    1406kB time=00:00:06.79 bitrate=1695.7kbits/s speed=0.162x    frame=  220 fps=5.2 q=61.0 size=    1406kB time=00:00:06.95 bitrate=1655.3kbits/s speed=0.164x    frame=  223 fps=5.2 q=61.0 size=    1406kB time=00:00:07.08 bitrate=1626.1kbits/s speed=0.164x    frame=  229 fps=5.2 q=58.0 size=    1406kB time=00:00:07.33 bitrate=1570.6kbits/s speed=0.167x    frame=  234 fps=5.3 q=61.0 size=    1607kB time=00:00:07.54 bitrate=1744.9kbits/s speed=0.17x    frame=  240 fps=5.3 q=60.0 size=    1607kB time=00:00:07.79 bitrate=1688.9kbits/s speed=0.173x    frame=  246 fps=5.4 q=60.0 size=    1607kB time=00:00:08.04 bitrate=1636.4kbits/s speed=0.177x    frame=  249 fps=5.4 q=60.0 size=    1607kB time=00:00:08.16 bitrate=1611.4kbits/s speed=0.176x    frame=  254 fps=5.4 q=60.0 size=    1607kB time=00:00:08.37 bitrate=1571.4kbits/s speed=0.178x    frame=  258 fps=5.4 q=60.0 size=    1607kB time=00:00:08.54 bitrate=1540.6kbits/s speed=0.178x    frame=  262 fps=5.4 q=60.0 size=    1607kB time=00:00:08.70 bitrate=1511.3kbits/s speed=0.178x    frame=  268 fps=5.4 q=60.0 size=    1607kB time=00:00:08.95 bitrate=1469.1kbits/s speed=0.182x    frame=  271 fps=5.4 q=60.0 size=    1607kB time=00:00:09.08 bitrate=1448.9kbits/s speed=0.182x    frame=  272 fps=5.4 q=60.0 size=    1607kB time=00:00:09.12 bitrate=1442.2kbits/s speed=0.181x    frame=  277 fps=5.4 q=60.0 size=    1607kB time=00:00:09.33 bitrate=1410.1kbits/s speed=0.182x    frame=  283 fps=5.5 q=59.0 size=    1607kB time=00:00:09.58 bitrate=1373.3kbits/s speed=0.185x    frame=  293 fps=5.6 q=59.0 size=    1607kB time=00:00:10.00 bitrate=1316.0kbits/s speed=0.19x    frame=  302 fps=5.7 q=59.0 size=    1607kB time=00:00:10.37 bitrate=1268.5kbits/s speed=0.195x    frame=  310 fps=5.8 q=59.0 size=    1607kB time=00:00:10.70 bitrate=1229.0kbits/s speed=0.199x    frame=  312 fps=5.7 q=59.0 size=    1607kB time=00:00:10.79 bitrate=1219.5kbits/s speed=0.199x    frame=  323 fps=5.9 q=58.0 size=    2044kB time=00:00:11.25 bitrate=1488.1kbits/s speed=0.205x    frame=  327 fps=5.9 q=58.0 size=    2044kB time=00:00:11.41 bitrate=1466.4kbits/s speed=0.205x    frame=  331 fps=5.9 q=58.0 size=    2044kB time=00:00:11.58 bitrate=1445.4kbits/s speed=0.206x    frame=  332 fps=5.8 q=58.0 size=    2044kB time=00:00:11.62 bitrate=1440.1kbits/s speed=0.204x    frame=  334 fps=5.8 q=58.0 size=    2044kB time=00:00:11.70 bitrate=1429.9kbits/s speed=0.204x    frame=  336 fps=5.8 q=58.0 size=    2044kB time=00:00:11.79 bitrate=1419.7kbits/s speed=0.203x    frame=  341 fps=5.8 q=58.0 size=    2044kB time=00:00:12.00 bitrate=1395.1kbits/s speed=0.204x    frame=  346 fps=5.8 q=57.0 size=    2044kB time=00:00:12.20 bitrate=1371.4kbits/s speed=0.205x    frame=  350 fps=5.8 q=57.0 size=    2044kB time=00:00:12.37 bitrate=1352.9kbits/s speed=0.205x    frame=  352 fps=5.8 q=57.0 size=    2044kB time=00:00:12.45 bitrate=1343.8kbits/s speed=0.204x    frame=  355 fps=5.7 q=57.0 size=    2044kB time=00:00:12.58 bitrate=1330.5kbits/s speed=0.204x    frame=  361 fps=5.7 q=56.0 size=    2044kB time=00:00:12.83 bitrate=1304.6kbits/s speed=0.204x    frame=  363 fps=5.7 q=56.0 size=    2044kB time=00:00:12.91 bitrate=1296.1kbits/s speed=0.204x    frame=  372 fps=5.8 q=56.0 size=    2044kB time=00:00:13.29 bitrate=1259.5kbits/s speed=0.208x    frame=  375 fps=5.8 q=56.0 size=    2044kB time=00:00:13.41 bitrate=1247.8kbits/s speed=0.208x    frame=  381 fps=5.8 q=55.0 size=    2044kB time=00:00:13.66 bitrate=1225.0kbits/s speed=0.209x    frame=  387 fps=5.9 q=55.0 size=    2044kB time=00:00:13.91 bitrate=1203.0kbits/s speed=0.211x    frame=  394 fps=5.9 q=55.0 size=    2044kB time=00:00:14.20 bitrate=1178.3kbits/s speed=0.213x    frame=  401 fps=6.0 q=54.0 size=    2044kB time=00:00:14.50 bitrate=1154.6kbits/s speed=0.215x    frame=  405 fps=6.0 q=54.0 size=    2044kB time=00:00:14.66 bitrate=1141.5kbits/s speed=0.216x    frame=  411 fps=6.0 q=54.0 size=    2044kB time=00:00:14.91 bitrate=1122.3kbits/s speed=0.218x    frame=  412 fps=6.0 q=53.0 size=    2044kB time=00:00:14.95 bitrate=1119.3kbits/s speed=0.217x    frame=  413 fps=5.9 q=53.0 size=    2321kB time=00:00:15.00 bitrate=1267.7kbits/s speed=0.216x    frame=  415 fps=5.9 q=53.0 size=    2321kB time=00:00:15.08 bitrate=1260.7kbits/s speed=0.215x    frame=  421 fps=6.0 q=53.0 size=    2321kB time=00:00:15.33 bitrate=1240.1kbits/s speed=0.217x    frame=  429 fps=6.0 q=53.0 size=    2321kB time=00:00:15.66 bitrate=1213.7kbits/s speed=0.22x    frame=  438 fps=6.1 q=53.0 size=    2321kB time=00:00:16.04 bitrate=1185.3kbits/s speed=0.223x    frame=  445 fps=6.1 q=53.0 size=    2321kB time=00:00:16.33 bitrate=1164.2kbits/s speed=0.225x    frame=  454 fps=6.2 q=53.0 size=    2321kB time=00:00:16.70 bitrate=1138.1kbits/s speed=0.228x    frame=  456 fps=6.2 q=53.0 size=    2321kB time=00:00:16.79 bitrate=1132.4kbits/s speed=0.227x    frame=  461 fps=6.2 q=53.0 size=    2321kB time=00:00:17.00 bitrate=1118.5kbits/s speed=0.228x    frame=  469 fps=6.2 q=52.0 size=    2643kB time=00:00:17.33 bitrate=1249.3kbits/s speed=0.231x    frame=  478 fps=6.3 q=52.0 size=    2643kB time=00:00:17.70 bitrate=1222.8kbits/s speed=0.234x    frame=  485 fps=6.4 q=52.0 size=    2643kB time=00:00:18.00 bitrate=1203.0kbits/s speed=0.236x    frame=  497 fps=6.5 q=52.0 size=    2643kB time=00:00:18.50 bitrate=1170.5kbits/s speed=0.24x    frame=  500 fps=6.3 q=-1.0 Lsize=    3075kB time=00:00:20.70 bitrate=1216.6kbits/s speed=0.263x    
video:3071kB audio:0kB subtitle:0kB other streams:0kB global headers:0kB muxing overhead: 0.144241%
bench: utime=117.268s
bench: maxrss=1565636kB
[libx264 @ 0x37931c0] frame I:8     Avg QP:46.91  size: 18818
[libx264 @ 0x37931c0] frame P:269   Avg QP:50.10  size:  8402
[libx264 @ 0x37931c0] frame B:223   Avg QP:49.50  size:  3289
[libx264 @ 0x37931c0] consecutive B-frames: 37.0%  8.4%  6.6% 48.0%
[libx264 @ 0x37931c0] mb I  I16..4: 15.1% 84.7%  0.1%
[libx264 @ 0x37931c0] mb P  I16..4:  6.3% 26.4%  0.0%  P16..4:  4.5%  0.2%  0.3%  0.0%  0.0%    skip:62.3%
[libx264 @ 0x37931c0] mb B  I16..4:  0.5%  0.6%  0.0%  B16..8:  8.4%  0.1%  0.0%  direct: 0.1%  skip:90.4%  L0:43.8% L1:55.7% BI: 0.4%
[libx264 @ 0x37931c0] final ratefactor: 49.90
[libx264 @ 0x37931c0] 8x8 transform intra:80.4% inter:98.6%
[libx264 @ 0x37931c0] coded y,uvDC,uvAC intra: 2.6% 13.9% 0.0% inter: 0.3% 0.5% 0.0%
[libx264 @ 0x37931c0] i16 v,h,dc,p: 55% 34%  4%  7%
[libx264 @ 0x37931c0] i8 v,h,dc,ddl,ddr,vr,hd,vl,hu: 13%  7% 79%  0%  0%  0%  0%  0%  0%
[libx264 @ 0x37931c0] i4 v,h,dc,ddl,ddr,vr,hd,vl,hu: 31% 23% 17%  7%  7%  4%  5%  3%  3%
[libx264 @ 0x37931c0] i8c dc,h,v,p: 99%  0%  0%  0%
[libx264 @ 0x37931c0] Weighted P-Frames: Y:1.1% UV:0.7%
[libx264 @ 0x37931c0] ref P L0: 54.2%  0.9% 31.5% 13.3%  0.1%
[libx264 @ 0x37931c0] ref B L0: 78.8% 17.1%  4.1%
[libx264 @ 0x37931c0] ref B L1: 92.9%  7.1%
[libx264 @ 0x37931c0] kb/s:1207.32
